<svg viewBox="0 0 256 30">
<path fill-rule="evenodd" clip-rule="evenodd" d="M59.9381 0.191504C63.3393 0.191504 65.9328 0.876764 67.7187 2.24632C69.504 3.61619 70.566 5.79542 70.9053 8.78433L63.1518 9.27555C62.9459 7.97788 62.5134 7.03411 61.8538 6.44426C61.1939 5.85441 60.2831 5.55916 59.1207 5.55916C58.1647 5.55916 57.4441 5.77931 56.9601 6.21799C56.4758 6.65732 56.2341 7.19141 56.2341 7.82058C56.2341 8.27957 56.4335 8.69247 56.833 9.0596C57.2202 9.43962 58.1403 9.79353 59.5931 10.121C63.1881 10.96 65.7634 11.809 67.3192 12.6674C68.8745 13.5264 70.0064 14.5916 70.7145 15.8626C71.4227 17.1341 71.7769 18.5562 71.7769 20.1295C71.7769 21.9777 71.3048 23.6818 70.3603 25.2419C69.4165 26.8019 68.0967 27.9848 66.4022 28.791C64.7074 29.5968 62.5708 30 59.9926 30C55.465 30 52.3301 29.0566 50.5868 27.1687C48.8437 25.2809 47.857 22.8821 47.6272 19.9722L55.4531 19.4413C55.6224 20.818 55.9674 21.8662 56.4883 22.5872C57.3354 23.754 58.546 24.3371 60.1197 24.3371C61.2939 24.3371 62.1987 24.0389 62.8342 23.4426C63.4697 22.8463 63.7873 22.1546 63.7873 21.3685C63.7873 20.6213 63.4846 19.9522 62.8798 19.3627C62.2741 18.7725 60.87 18.2155 58.6671 17.6911C55.0596 16.8134 52.4873 15.6466 50.9499 14.1913C49.4003 12.7363 48.6259 10.8814 48.6259 8.62672C48.6259 7.14564 49.0223 5.74611 49.8153 4.42877C50.6079 3.11111 51.8003 2.07613 53.3921 1.32189C54.9837 0.5683 57.1658 0.191504 59.9381 0.191504ZM223.096 0.000225628C227.526 0.000225628 230.94 1.28791 233.337 3.86392C233.805 4.36733 234.228 4.9102 234.605 5.49251L234.604 0.49164H242.83V22.2192H255.667V29.317H234.604L234.605 24.3252C233.628 25.8451 232.367 27.0731 230.822 28.0095C228.843 29.2089 226.376 29.8087 223.423 29.8087C220.421 29.8087 217.936 29.2911 215.969 28.2551C214.002 27.2198 212.407 25.5811 211.185 23.3394C210.685 22.4236 210.287 21.4136 209.992 20.3094C209.748 21.2828 209.43 22.1715 209.039 22.9758C207.992 25.1325 206.479 26.8101 204.5 28.0095C202.521 29.2089 200.054 29.8087 197.101 29.8087C194.099 29.8087 191.614 29.2911 189.647 28.2551C187.68 27.2198 186.085 25.5811 184.863 23.3394C183.64 21.0982 183.029 18.2931 183.029 14.9238C183.029 10.2182 184.239 6.55468 186.66 3.93257C189.081 1.31112 192.452 0.000225628 196.774 0.000225628C201.205 0.000225628 204.618 1.28791 207.015 3.86392C208.428 5.38299 209.425 7.26127 210.005 9.49857C210.595 7.2979 211.588 5.44256 212.982 3.93257C215.403 1.31112 218.775 0.000225628 223.096 0.000225628ZM106.374 0C109.776 0 112.369 0.68526 114.155 2.05481C115.94 3.42469 117.002 5.60392 117.341 8.59283L109.588 9.08437C109.382 7.78637 108.949 6.84261 108.29 6.25308C107.63 5.66291 106.719 5.36798 105.557 5.36798C104.601 5.36798 103.88 5.5878 103.396 6.02649C102.912 6.46614 102.67 7.00023 102.67 7.6294C102.67 8.08839 102.87 8.50097 103.269 8.86809C103.656 9.24811 104.577 9.60202 106.029 9.9295C109.624 10.7688 112.2 11.6175 113.755 12.4759C115.31 13.3349 116.443 14.4001 117.15 15.6711C117.859 16.9429 118.213 18.3647 118.213 19.9383C118.213 21.7865 117.741 23.4903 116.797 25.0504C115.852 26.6104 114.533 27.7933 112.838 28.5995C111.143 29.4056 109.007 29.8088 106.428 29.8088C101.901 29.8088 98.7661 28.8651 97.023 26.9775C95.2797 25.0897 94.2932 22.6909 94.0635 19.7807L101.889 19.2501C102.059 20.6265 102.404 21.675 102.924 22.3957C103.771 23.5625 104.982 24.1459 106.556 24.1459C107.73 24.1459 108.635 23.8478 109.27 23.2511C109.906 22.6548 110.224 21.9631 110.224 21.177C110.224 20.4298 109.921 19.761 109.316 19.1712C108.71 18.5813 107.306 18.0243 105.103 17.4999C101.496 16.6219 98.9235 15.4551 97.3861 14.0001C95.8366 12.5452 95.0618 10.6899 95.0618 8.43521C95.0618 6.95413 95.4585 5.5546 96.2515 4.23727C97.0441 2.91993 98.2365 1.88463 99.8284 1.13071C101.42 0.377119 103.602 0 106.374 0ZM134.385 0.000128917C137.738 0.000128917 140.374 0.734382 142.292 2.20224C144.211 3.67075 145.636 5.92508 146.568 8.96621L139.305 10.7164C139.051 9.83842 138.785 9.1957 138.506 8.78925C138.046 8.10786 137.483 7.58344 136.818 7.21631C136.152 6.84951 135.408 6.66578 134.585 6.66578C132.72 6.66578 131.292 7.47804 130.299 9.10126C129.549 10.3058 129.174 12.1978 129.174 14.7767C129.174 17.9713 129.621 20.1615 130.517 21.346C131.413 22.5309 132.672 23.1236 134.294 23.1236C135.867 23.1236 137.057 22.645 137.862 21.688C138.667 20.7313 139.251 19.3415 139.614 17.5197L146.823 19.8791C146.339 22.0683 145.576 23.8969 144.535 25.3647C143.494 26.8333 142.201 27.9408 140.658 28.6879C139.115 29.4351 137.151 29.8086 134.766 29.8086C131.873 29.8086 129.509 29.3535 127.675 28.4429C125.842 27.5327 124.259 25.9317 122.927 23.639C121.595 21.3463 120.93 18.4122 120.93 14.8357C120.93 10.0673 122.101 6.40277 124.444 3.84158C126.786 1.28072 130.1 0.000128917 134.385 0.000128917ZM13.7089 0.683241C16.2509 0.683241 18.1939 0.919182 19.5375 1.39106C20.8811 1.86295 21.9643 2.73805 22.7876 4.01575C23.6109 5.29408 24.0225 6.85091 24.0225 8.68557C24.0225 10.2853 23.7076 11.6648 23.0775 12.8249C22.4477 13.9849 21.5815 14.9258 20.4796 15.6465C19.7771 16.1055 18.8145 16.4855 17.5909 16.7869C18.5705 17.1411 19.2845 17.4956 19.7322 17.8496C20.0346 18.0855 20.4728 18.5909 21.0478 19.3651C21.6223 20.1393 22.0065 20.7363 22.2 21.156L26.1832 29.5086H16.889L12.4924 20.6995C11.9352 19.5592 11.4393 18.8185 11.0033 18.4781C10.4101 18.0323 9.73826 17.8089 8.98788 17.8089H8.26161V29.5086H0V0.683241H13.7089ZM159.923 0.49164V10.5784H168.911V0.49164H177.173V29.317H168.911V17.6573H159.923V29.317H151.698V0.49164H159.923ZM196.756 6.74453C195.097 6.74453 193.766 7.38047 192.761 8.65172C191.756 9.92361 191.254 12.0271 191.254 14.9635C191.254 17.8737 191.754 19.9643 192.752 21.2359C193.751 22.5071 195.11 23.1427 196.829 23.1427C198.596 23.1427 199.964 22.5207 200.932 21.2749C201.9 20.0297 202.385 17.7951 202.385 14.5699C202.385 11.8569 201.879 9.87429 200.869 8.62239C199.858 7.37048 198.487 6.74453 196.756 6.74453ZM223.078 6.74453C221.419 6.74453 220.088 7.38047 219.083 8.65172C218.078 9.92361 217.576 12.0271 217.576 14.9635C217.576 17.8737 218.075 19.9643 219.074 21.2359C220.073 22.5071 221.431 23.1427 223.151 23.1427C224.918 23.1427 226.286 22.5207 227.254 21.2749C228.222 20.0297 228.707 17.7951 228.707 14.5699C228.707 11.8569 228.201 9.87429 227.19 8.62239C226.18 7.37048 224.809 6.74453 223.078 6.74453ZM11.8751 6.50344H8.26161V12.3626H11.7298C12.1049 12.3626 12.8312 12.2318 13.9086 11.9694C14.4534 11.8514 14.898 11.5501 15.2433 11.065C15.5883 10.5802 15.7606 10.0229 15.7606 9.39372C15.7606 8.46285 15.4883 7.7489 14.9436 7.25059C14.3989 6.75227 13.3759 6.50344 11.8751 6.50344Z" fill="white"/>
</svg>
